<svg xmlns="http://www.w3.org/2000/svg" viewBox="0 0 64 64" role="img" aria-label="PDF Merger">
  <defs>
    <linearGradient id="pdfMergerBg" x1="8" y1="8" x2="56" y2="56" gradientUnits="userSpaceOnUse">
      <stop offset="0" stop-color="#38bdf8"/>
      <stop offset=".52" stop-color="#2dd4bf"/>
      <stop offset="1" stop-color="#f97316"/>
    </linearGradient>
  </defs>
  <rect width="64" height="64" rx="18" fill="#101828"/>
  <path d="M17 13h19l11 11v26a4 4 0 0 1-4 4H17a4 4 0 0 1-4-4V17a4 4 0 0 1 4-4Z" fill="url(#pdfMergerBg)"/>
  <path d="M36 13v10a2 2 0 0 0 2 2h9" fill="#e0f2fe" opacity=".92"/>
  <path d="M21 34h16" fill="none" stroke="#ffffff" stroke-width="4" stroke-linecap="round"/>
  <path d="M21 43h22" fill="none" stroke="#ffffff" stroke-width="4" stroke-linecap="round"/>
  <path d="M20 25h8" fill="none" stroke="#101828" stroke-width="4" stroke-linecap="round"/>
  <path d="M43 31 52 40l-9 9" fill="none" stroke="#101828" stroke-width="5" stroke-linecap="round" stroke-linejoin="round"/>
  <path d="M48 40H34" fill="none" stroke="#101828" stroke-width="5" stroke-linecap="round"/>
</svg>
