<svg xmlns="http://www.w3.org/2000/svg" viewBox="0 0 64 64" role="img" aria-label="QR Code Generator">
  <defs>
    <linearGradient id="qrGenBg" x1="7" y1="8" x2="57" y2="56" gradientUnits="userSpaceOnUse">
      <stop offset="0" stop-color="#38bdf8"/>
      <stop offset=".5" stop-color="#2dd4bf"/>
      <stop offset="1" stop-color="#f59e0b"/>
    </linearGradient>
    <linearGradient id="qrGenPaper" x1="17" y1="15" x2="48" y2="50" gradientUnits="userSpaceOnUse">
      <stop offset="0" stop-color="#ffffff"/>
      <stop offset="1" stop-color="#e8fbff"/>
    </linearGradient>
  </defs>
  <rect width="64" height="64" rx="18" fill="url(#qrGenBg)"/>
  <path fill="#0f172a" opacity=".14" d="M10 50c11-12 18-4 29-15 8-8 10-17 16-22v34c0 5-4 9-9 9H10Z"/>
  <rect x="15" y="15" width="34" height="34" rx="8" fill="url(#qrGenPaper)"/>
  <g fill="#0f172a">
    <rect x="20" y="20" width="9" height="9" rx="2.3"/>
    <rect x="35" y="20" width="9" height="9" rx="2.3"/>
    <rect x="20" y="35" width="9" height="9" rx="2.3"/>
  </g>
  <g fill="#ffffff">
    <rect x="23" y="23" width="3" height="3" rx=".8"/>
    <rect x="38" y="23" width="3" height="3" rx=".8"/>
    <rect x="23" y="38" width="3" height="3" rx=".8"/>
  </g>
  <g fill="#0f172a">
    <rect x="35" y="35" width="4" height="4" rx="1"/>
    <rect x="41" y="35" width="3" height="3" rx=".8"/>
    <rect x="35" y="41" width="3" height="3" rx=".8"/>
    <rect x="42" y="42" width="5" height="5" rx="1.2"/>
  </g>
  <circle cx="48" cy="17" r="8" fill="#ffffff"/>
  <path d="M48 13v8M44 17h8" stroke="#0f172a" stroke-width="3" stroke-linecap="round"/>
</svg>
