<svg xmlns="http://www.w3.org/2000/svg" viewBox="0 0 64 64" role="img" aria-label="QR tools">
  <defs>
    <linearGradient id="qrToolsBg" x1="8" y1="8" x2="56" y2="56" gradientUnits="userSpaceOnUse">
      <stop offset="0" stop-color="#6ee7f9"/>
      <stop offset=".52" stop-color="#34d399"/>
      <stop offset="1" stop-color="#8b5cf6"/>
    </linearGradient>
    <linearGradient id="qrToolsInk" x1="18" y1="16" x2="48" y2="50" gradientUnits="userSpaceOnUse">
      <stop offset="0" stop-color="#f8fbff"/>
      <stop offset="1" stop-color="#dff9ff"/>
    </linearGradient>
  </defs>
  <rect width="64" height="64" rx="18" fill="url(#qrToolsBg)"/>
  <path fill="#102033" opacity=".14" d="M8 50c12-12 22-5 34-17 7-7 10-15 14-21v34c0 6-4 10-10 10H8Z"/>
  <g fill="url(#qrToolsInk)">
    <rect x="15" y="15" width="14" height="14" rx="4"/>
    <rect x="35" y="15" width="14" height="14" rx="4"/>
    <rect x="15" y="35" width="14" height="14" rx="4"/>
  </g>
  <g fill="#102033">
    <rect x="20" y="20" width="4" height="4" rx="1"/>
    <rect x="40" y="20" width="4" height="4" rx="1"/>
    <rect x="20" y="40" width="4" height="4" rx="1"/>
    <rect x="35" y="36" width="5" height="5" rx="1.4"/>
    <rect x="44" y="36" width="5" height="5" rx="1.4"/>
    <rect x="35" y="45" width="5" height="5" rx="1.4"/>
    <rect x="44" y="45" width="3" height="3" rx="1"/>
    <rect x="48" y="42" width="3" height="3" rx="1"/>
  </g>
</svg>
